<?xml version="1.0" standalone="no"?>
<!DOCTYPE svg PUBLIC "-//W3C//DTD SVG 20010904//EN"
 "http://www.w3.org/TR/2001/REC-SVG-20010904/DTD/svg10.dtd">
<svg version="1.0" xmlns="http://www.w3.org/2000/svg"
 width="500.000000pt" height="500.000000pt" viewBox="0 0 500.000000 500.000000"
 preserveAspectRatio="xMidYMid meet">

<g transform="translate(0.000000,500.000000) scale(0.100000,-0.100000)"
fill="#000000" stroke="none">
<path d="M2007 3673 c-4 -3 -7 -41 -7 -84 l0 -79 -167 -2 -168 -3 -3 -82 -3
-82 -82 -3 -82 -3 0 -665 0 -665 83 -3 82 -3 0 -159 c0 -147 1 -160 19 -170
24 -12 138 -13 145 -1 3 4 3 117 -1 250 l-6 241 -79 0 -78 0 0 340 0 340 165
0 165 0 0 -85 0 -85 410 -1 c226 -1 416 -2 423 -3 9 -1 13 -110 15 -503 l2
-503 -85 0 -85 0 0 -85 0 -85 -335 0 -335 0 0 -80 0 -80 500 0 500 0 0 79 c0
88 5 94 64 84 19 -3 51 -2 70 1 l36 7 0 79 c0 89 -5 85 87 81 82 -5 83 -2 83
179 l0 160 80 0 c74 0 80 2 85 23 3 12 4 312 3 667 l-3 645 -82 3 -83 3 0 84
0 85 -165 0 -165 0 0 -85 0 -85 85 0 85 0 0 -85 0 -86 -87 3 -88 3 -3 83 -3
82 -419 0 -420 0 0 85 0 85 420 0 421 0 -3 83 -3 82 -491 3 c-270 1 -494 -1
-497 -5z m1333 -1258 l0 -415 -84 0 -83 0 1 415 1 415 83 0 82 0 0 -415z
m-170 -590 l0 -165 -80 0 -80 0 0 165 0 165 80 0 80 0 0 -165z m-170 -250 l0
-85 -80 0 -80 0 0 85 0 85 80 0 80 0 0 -85z"/>
<path d="M1830 1581 c0 -91 0 -91 95 -91 l63 0 4 81 c2 44 1 83 -1 85 -2 2
-40 4 -83 4 l-78 0 0 -79z"/>
</g>
</svg>
