<?xml version="1.0" standalone="no"?>
<!DOCTYPE svg PUBLIC "-//W3C//DTD SVG 20010904//EN"
 "http://www.w3.org/TR/2001/REC-SVG-20010904/DTD/svg10.dtd">
<svg version="1.0" xmlns="http://www.w3.org/2000/svg"
 width="256.000000pt" height="256.000000pt" viewBox="0 0 256.000000 256.000000"
 preserveAspectRatio="xMidYMid meet">

<g transform="translate(0.000000,256.000000) scale(0.100000,-0.100000)"
fill="#000000" stroke="none">
<path d="M1360 2255 l0 -85 -85 0 -85 0 0 -85 0 -85 -172 -3 -173 -3 178 -2
177 -2 0 85 0 85 85 0 85 0 0 85 0 85 173 3 172 3 -177 2 -178 2 0 -85z"/>
<path d="M1704 2243 l1 -78 88 -1 87 0 -85 3 -84 4 -4 74 -3 75 0 -77z"/>
<path d="M1879 1997 c4 -4 46 -7 92 -5 l84 3 -92 5 c-51 3 -89 1 -84 -3z"/>
<path d="M852 1908 l-2 -77 -87 -4 -88 -3 88 -2 c66 -1 89 1 93 11 3 8 3 45 1
83 l-3 69 -2 -77z"/>
<path d="M2098 1823 c23 -2 61 -2 85 0 23 2 4 4 -43 4 -47 0 -66 -2 -42 -4z"/>
<path d="M2052 1735 l-2 -80 77 5 78 5 -72 3 -72 3 -4 72 -3 72 -2 -80z"/>
<path d="M423 1653 c48 -2 125 -2 170 0 45 1 6 3 -88 3 -93 0 -130 -2 -82 -3z"/>
<path d="M2268 1653 c23 -2 61 -2 85 0 23 2 4 4 -43 4 -47 0 -66 -2 -42 -4z"/>
<path d="M2222 1565 l-2 -80 77 5 78 5 -72 3 -72 3 -4 72 -3 72 -2 -80z"/>
<path d="M207 1483 c24 -2 62 -2 85 0 24 2 5 4 -42 4 -47 0 -66 -2 -43 -4z"/>
<path d="M2393 1390 c0 -47 2 -66 4 -42 2 23 2 61 0 85 -2 23 -4 4 -4 -43z"/>
<path d="M2220 1225 l0 -85 -85 0 -85 0 2 -82 2 -83 3 78 4 77 82 1 c45 0 118
1 162 1 l80 2 -77 3 -78 4 0 79 0 79 78 4 77 3 -82 2 -83 2 0 -85z"/>
<path d="M37 1133 c24 -2 62 -2 85 0 24 2 5 4 -42 4 -47 0 -66 -2 -43 -4z"/>
<path d="M247 1133 l82 -4 4 -77 3 -77 2 83 2 82 -87 -2 -88 -2 82 -3z"/>
<path d="M207 963 c24 -2 62 -2 85 0 24 2 5 4 -42 4 -47 0 -66 -2 -43 -4z"/>
<path d="M417 963 l82 -4 4 -77 3 -77 2 83 2 82 -87 -2 -88 -2 82 -3z"/>
<path d="M1712 888 l2 -83 3 77 4 78 167 3 167 3 -172 2 -173 2 2 -82z"/>
<path d="M2098 963 c23 -2 61 -2 85 0 23 2 4 4 -43 4 -47 0 -66 -2 -42 -4z"/>
<path d="M378 793 c23 -2 61 -2 85 0 23 2 4 4 -43 4 -47 0 -66 -2 -42 -4z"/>
<path d="M520 790 c8 -5 45 -10 82 -10 l67 0 4 -72 3 -73 2 83 2 82 -87 0
c-61 0 -83 -3 -73 -10z"/>
<path d="M1542 718 l2 -83 3 72 4 71 74 4 75 3 0 -77 0 -78 -85 0 -85 0 0 -85
0 -85 -170 0 -170 0 0 -85 0 -85 -165 0 -165 0 0 85 0 85 -92 -2 -93 -2 88 -3
87 -4 0 -84 0 -85 175 0 175 0 0 85 0 85 170 0 170 0 0 85 0 85 85 0 85 0 0
85 0 85 173 3 c140 2 124 3 -85 5 l-258 2 2 -82z"/>
<path d="M592 623 l87 -4 4 -77 3 -77 2 75 2 75 75 -3 74 -4 4 -71 3 -72 2 83
2 82 -172 -2 c-95 -1 -134 -4 -86 -5z"/>
<path d="M1202 548 l2 -83 3 73 4 72 154 0 c97 0 155 4 155 10 0 6 -60 10
-160 10 l-160 0 2 -82z"/>
<path d="M870 450 c0 -6 58 -10 155 -10 97 0 155 4 155 10 0 6 -58 10 -155 10
-97 0 -155 -4 -155 -10z"/>
</g>
</svg>
